<?xml version="1.0" encoding="UTF-8"?>
<!DOCTYPE svg PUBLIC "-//W3C//DTD SVG 1.1//EN" "http://www.w3.org/Graphics/SVG/1.1/DTD/svg11.dtd">
<!-- Creator: CorelDRAW 2017 -->
<svg xmlns="http://www.w3.org/2000/svg" xml:space="preserve" width="28px" height="28px" version="1.1" style="shape-rendering:geometricPrecision; text-rendering:geometricPrecision; image-rendering:optimizeQuality; fill-rule:evenodd; clip-rule:evenodd"
viewBox="0 0 0.73 0.73"
 xmlns:xlink="http://www.w3.org/1999/xlink">
 <defs>
  <style type="text/css">
   <![CDATA[
    .fil1 {fill:#FEFEFE}
    .fil0 {fill:#879758}
   ]]>
  </style>
 </defs>
 <g id="Слой_x0020_1">
  <metadata id="CorelCorpID_0Corel-Layer"/>
  <g id="_2587205017120">
   <circle class="fil0" cx="0.36" cy="0.36" r="0.36"/>
   <path class="fil1" d="M0.36 0.31c-0.03,0 -0.05,0.03 -0.05,0.06 0,0.03 0.03,0.05 0.06,0.05 0.03,0 0.05,-0.03 0.05,-0.06 0,-0.03 -0.03,-0.06 -0.06,-0.05zm0.1 -0.07c-0.03,0.01 -0.02,0.05 0.01,0.05 0.01,-0.01 0.02,-0.02 0.01,-0.03 0,-0.01 -0.01,-0.02 -0.02,-0.02zm-0.15 -0.04c-0.01,0 -0.02,0 -0.04,0 -0.01,0 -0.02,0 -0.03,0.01 -0.04,0.03 -0.04,0.07 -0.04,0.12 0,0.03 0,0.06 0,0.09 0,0.02 0,0.04 0.01,0.07 0.01,0.01 0.02,0.03 0.05,0.03 0.02,0.01 0.05,0.01 0.07,0.01 0.03,0 0.06,0 0.09,0 0.02,0 0.05,0 0.07,-0.01 0.04,-0.03 0.04,-0.07 0.04,-0.12 0,-0.03 0,-0.06 0,-0.09 0,-0.02 0,-0.05 -0.01,-0.07 -0.01,-0.02 -0.03,-0.03 -0.05,-0.04 -0.02,0 -0.05,0 -0.07,0 -0.02,0 -0.03,0 -0.05,0 -0.01,0 -0.02,-0.01 -0.04,0z"/>
  </g>
 </g>
</svg>
