<?xml version="1.0" encoding="UTF-8"?>
<!DOCTYPE svg PUBLIC "-//W3C//DTD SVG 1.1//EN" "http://www.w3.org/Graphics/SVG/1.1/DTD/svg11.dtd">
<!-- Creator: CorelDRAW 2017 -->
<svg xmlns="http://www.w3.org/2000/svg" xml:space="preserve" width="28px" height="28px" version="1.1" style="shape-rendering:geometricPrecision; text-rendering:geometricPrecision; image-rendering:optimizeQuality; fill-rule:evenodd; clip-rule:evenodd"
viewBox="0 0 0.69 0.69"
 xmlns:xlink="http://www.w3.org/1999/xlink">
 <defs>
  <style type="text/css">
   <![CDATA[
    .fil3 {fill:#FEFEFE}
    .fil1 {fill:#01F6EF}
    .fil0 {fill:#879758}
    .fil2 {fill:#FF004E}
   ]]>
  </style>
 </defs>
 <g id="Слой_x0020_1">
  <metadata id="CorelCorpID_0Corel-Layer"/>
  <g id="_2181410462656">
   <circle class="fil0" cx="0.34" cy="0.34" r="0.34"/>
   <g>
    <path class="fil1" d="M0.35 0.41l0 -0.3 0.07 0c0,0.01 0,0.01 0.01,0.02l-0.06 0 -0.01 0.3c0,0.08 -0.08,0.09 -0.11,0.05l0 -0.01c0.03,0.03 0.09,0.01 0.1,-0.06zm0.11 -0.22c0.01,0.02 0.04,0.03 0.07,0.03l0 0.02c-0.03,-0.01 -0.06,-0.02 -0.07,-0.04l0 -0.01zm-0.27 0.34c-0.03,-0.03 -0.05,-0.07 -0.05,-0.11 0,-0.09 0.07,-0.15 0.17,-0.14l0 0.08 0 -0.06c-0.09,0 -0.15,0.06 -0.15,0.14 0,0.03 0.01,0.06 0.03,0.09z"/>
    <path class="fil2" d="M0.43 0.13l0.01 0c0,0.03 0.01,0.05 0.02,0.07 -0.02,-0.02 -0.03,-0.04 -0.03,-0.07zm0.05 0.09c0,0 0.01,0 0.01,0 0,0 -0.01,0 -0.01,0zm0.03 0.01c0,0 0,0.01 0.01,0.01 -0.01,0 -0.01,-0.01 -0.01,-0.01zm0.01 0.01c0.01,0 0.02,0 0.03,0l0 0.08c-0.04,0 -0.09,-0.01 -0.11,-0.04l0 0.12c0,0.03 0,0.05 0,0.07 -0.01,0.07 -0.07,0.11 -0.14,0.11 -0.04,0 -0.08,-0.02 -0.11,-0.05 0.02,0.02 0.06,0.03 0.09,0.03 0.07,0 0.13,-0.04 0.14,-0.11 0.01,-0.02 0,-0.05 0,-0.07l0 -0.12c0.03,0.03 0.07,0.04 0.11,0.04l0 -0.06 -0.01 0zm-0.35 0.17c0,-0.01 0,-0.01 0,-0.01 0,0 0,0 0,0.01zm0 -0.02c0,0 0,0 0,-0.01 0,0.01 0,0.01 0,0.01zm0.02 -0.04c0.01,0 0.01,-0.01 0.01,-0.01 0,0 0,0.01 -0.01,0.01zm0.12 -0.05c0,0 0.01,0 0.01,0l0 0.08c-0.06,-0.01 -0.09,0.05 -0.07,0.09 -0.01,0 -0.01,-0.01 -0.02,-0.02 -0.02,-0.04 0,-0.1 0.08,-0.09l0 -0.06z"/>
    <path class="fil3" d="M0.36 0.43l0.01 -0.3 0.06 0c0,0.03 0.01,0.05 0.03,0.07 0.01,0.02 0.04,0.03 0.07,0.04l0 0.06c-0.04,0 -0.08,-0.01 -0.11,-0.04l0 0.12c0,0.02 0.01,0.05 0,0.07 -0.01,0.07 -0.07,0.11 -0.14,0.11 -0.03,0 -0.07,-0.01 -0.09,-0.03 -0.02,-0.03 -0.03,-0.06 -0.03,-0.09 0,-0.08 0.06,-0.14 0.15,-0.14l0 0.06c-0.08,-0.01 -0.1,0.05 -0.08,0.09 0.01,0.01 0.01,0.02 0.02,0.02l0 0.01c0.03,0.04 0.11,0.03 0.11,-0.05z"/>
   </g>
  </g>
 </g>
</svg>
