<?xml version="1.0" encoding="UTF-8"?>
<!DOCTYPE svg PUBLIC "-//W3C//DTD SVG 1.1//EN" "http://www.w3.org/Graphics/SVG/1.1/DTD/svg11.dtd">
<!-- Creator: CorelDRAW 2017 -->
<svg xmlns="http://www.w3.org/2000/svg" xml:space="preserve" width="28px" height="28px" version="1.1" style="shape-rendering:geometricPrecision; text-rendering:geometricPrecision; image-rendering:optimizeQuality; fill-rule:evenodd; clip-rule:evenodd"
viewBox="0 0 0.75 0.75"
 xmlns:xlink="http://www.w3.org/1999/xlink">
 <defs>
  <style type="text/css">
   <![CDATA[
    .fil0 {fill:#879758}
    .fil1 {fill:#FEFEFE}
   ]]>
  </style>
 </defs>
 <g id="Слой_x0020_1">
  <metadata id="CorelCorpID_0Corel-Layer"/>
  <g id="_2587214651648">
   <circle class="fil0" cx="0.37" cy="0.37" r="0.37"/>
   <path class="fil1" d="M0.39 0.51c0.01,-0.03 -0.01,-0.06 0.02,-0.07 0.02,0 0.05,0.04 0.06,0.05 0.01,0.01 0.02,0.02 0.03,0.03 0.03,0 0.09,0 0.06,-0.04 -0.07,-0.1 -0.1,-0.04 -0.03,-0.14 0.01,-0.01 0.01,-0.02 0.02,-0.03 0.01,-0.02 0.01,-0.03 0,-0.03 -0.01,-0.01 -0.04,-0.01 -0.06,-0.01 -0.02,0.02 -0.06,0.13 -0.09,0.12 -0.01,-0.02 0,-0.05 0,-0.08 0,-0.04 0,-0.04 -0.05,-0.04 -0.1,0 -0.01,0 -0.03,0.14 -0.04,-0.01 -0.07,-0.09 -0.08,-0.12 -0.01,-0.02 -0.01,-0.02 -0.03,-0.02 -0.01,0 -0.04,0 -0.05,0 -0.03,0.02 0.06,0.2 0.15,0.23 0.02,0.01 0.06,0.02 0.08,0.01z"/>
  </g>
 </g>
</svg>
